<?xml version="1.0" encoding="utf-8"?>
<?xml-stylesheet type="text/xsl" href="rss1.xsl"?>
<rss version="2.0" xmlns:atom="http://www.w3.org/2005/Atom" xmlns:content="http://purl.org/rss/1.0/modules/content/" xmlns:dc="http://purl.org/dc/elements/1.1/" xmlns:media="http://search.yahoo.com/mrss/">
<channel>
 <title>Getty</title>
 <link>http://www.gettyimg.com/</link>
 <atom:link href="http://www.gettyimg.com/" rel="self" type="application/rss+xml" />

 
                <item>
                <title><![CDATA[【BLU-RAY】BD REMUX - XG - 'NEW DNA' SHOWCASE in JAPAN (Blu-Ray MKV / 18GB) [2024.07.03]]]></title>
                <link><![CDATA[https://sharemania.us/threads/xg-new-dna-showcase-in-japan-blu-ray-mkv-18gb-2024-07-03.250026/]]></link>
                <description><![CDATA[<article>
<blockquote class="messageText SelectQuoteContainer ugc baseHtml">
<a href="https://ibb.co/5GJ9KmL" target="_blank" class="externalLink" rel="nofollow"><img src="https://i.ibb.co/mbPBNk4/401815.jpg" class="bbCodeImage LbImage" alt="[​IMG]" data-url="https://i.ibb.co/mbPBNk4/401815.jpg"></a><br>
<br>
<a href="https://ibb.co/d0s7v8K" target="_blank" class="externalLink" rel="nofollow"><img src="https://i.ibb.co/vxCDW0z/XG-NEW-DNA-SHOWCASE-IN-JAPAN-1080p-BD-mkv-thumbs.png" class="bbCodeImage LbImage" alt="[​IMG]" data-url="https://i.ibb.co/vxCDW0z/XG-NEW-DNA-SHOWCASE-IN-JAPAN-1080p-BD-mkv-thumbs.png"></a><br>
<br>
(Regular Edition &amp; Limited Edition)<br>
1. HESONOO<br>
2. X-GENE<br>
3. GRL GVNG<br>
4. PUPPET SHOW<br>
5. NEW DANCE<br>
6. TGIF<br>
En1. SHOOTING STAR<br>
En2. MASCARA<br>
En3. Just Stand Up!<br>
En4. LEFT RIGHT<br>
<br>
includes official japanese, english, korean, mandarin and spanish subtiles<br>
<br>
<div class="ToggleTriggerAnchor bbCodeSpoilerContainer">
<button type="button" class="button bbCodeSpoilerButton ToggleTrigger Tooltip JsOnly" data-target="> .SpoilerTarget"><span>Spoiler</span></button>
<div class="SpoilerTarget bbCodeSpoilerText">General<br>
Unique ID : 148347238023712009936138944990568548909 (0x6F9AA387973BE6256D09C4828F688A2D)<br>
Complete name : C:\Users\x\Downloads\XG NEW DNA SHOWCASE IN JAPAN 1080p BD.mkv<br>
Format : Matroska<br>
Format version : Version 2<br>
File size : 18.0 GiB<br>
Duration : 1 h 14 min<br>
Overall bit rate mode : Variable<br>
Overall bit rate : 34.4 Mb/s<br>
Frame rate : 23.976 FPS<br>
Encoded date : 2024-07-09 00:12:52 UTC<br>
Writing application : MakeMKV v1.17.7 win(x64-release)<br>
Writing library : libmakemkv v1.17.7 (1.3.10/1.5.2) win(x64-release)<br>
<br>
Video<br>
ID : 1<br>
ID in the original source medium : 4113 (0x1011)<br>
Format : AVC<br>
Format/Info : Advanced Video Codec<br>
Format profile : High@L4.1<br>
Format settings : CABAC / 4 Ref Frames<br>
Format settings, CABAC : Yes<br>
Format settings, Reference frames : 4 frames<br>
Format settings, Slice count : 4 slices per frame<br>
Codec ID : V_MPEG4/ISO/AVC<br>
Duration : 1 h 14 min<br>
Bit rate mode : Variable<br>
Bit rate : 32.0 Mb/s<br>
Maximum bit rate : 35.0 Mb/s<br>
Width : 1 920 pixels<br>
Height : 1 080 pixels<br>
Display aspect ratio : 16:9<br>
Frame rate mode : Constant<br>
Frame rate : 23.976 (24000/1001) FPS<br>
Color space : YUV<br>
Chroma subsampling : 4:2:0<br>
Bit depth : 8 bits<br>
Scan type : Progressive<br>
Bits/(Pixel*Frame) : 0.644<br>
Stream size : 16.7 GiB (93%)<br>
Language : English<br>
Default : No<br>
Forced : No<br>
Original source medium : Blu-ray<br>
<br>
Audio<br>
ID : 2<br>
ID in the original source medium : 4352 (0x1100)<br>
Format : PCM<br>
Format settings : Little / Signed<br>
Codec ID : A_PCM/INT/LIT<br>
Duration : 1 h 14 min<br>
Bit rate mode : Constant<br>
Bit rate : 2 304 kb/s<br>
Channel(s) : 2 channels<br>
Sampling rate : 48.0 kHz<br>
Frame rate : 30.000 FPS (1600 SPF)<br>
Bit depth : 24 bits<br>
Stream size : 1.20 GiB (7%)<br>
Title : Stereo<br>
Language : Japanese<br>
Default : Yes<br>
Forced : No<br>
Original source medium : Blu-ray<br>
<br>
Text #1<br>
ID : 3<br>
ID in the original source medium : 4608 (0x1200)<br>
Format : PGS<br>
Codec ID : S_HDMV/PGS<br>
Codec ID/Info : Picture based subtitle format used on BDs/HD-DVDs<br>
Duration : 1 h 3 min<br>
Bit rate : 27.6 kb/s<br>
Frame rate : 0.364 FPS<br>
Count of elements : 1380<br>
Stream size : 12.5 MiB (0%)<br>
Language : Japanese<br>
Default : No<br>
Forced : No<br>
Original source medium : Blu-ray<br>
<br>
Text #2<br>
ID : 5<br>
ID in the original source medium : 4609 (0x1201)<br>
Format : PGS<br>
Codec ID : S_HDMV/PGS<br>
Codec ID/Info : Picture based subtitle format used on BDs/HD-DVDs<br>
Duration : 1 h 3 min<br>
Bit rate : 25.8 kb/s<br>
Frame rate : 0.364 FPS<br>
Count of elements : 1380<br>
Stream size : 11.7 MiB (0%)<br>
Language : English<br>
Default : No<br>
Forced : No<br>
Original source medium : Blu-ray<br>
<br>
Text #3<br>
ID : 7<br>
ID in the original source medium : 4610 (0x1202)<br>
Format : PGS<br>
Codec ID : S_HDMV/PGS<br>
Codec ID/Info : Picture based subtitle format used on BDs/HD-DVDs<br>
Duration : 1 h 3 min<br>
Bit rate : 22.1 kb/s<br>
Frame rate : 0.364 FPS<br>
Count of elements : 1380<br>
Stream size : 10.0 MiB (0%)<br>
Language : Korean<br>
Default : No<br>
Forced : No<br>
Original source medium : Blu-ray<br>
<br>
Text #4<br>
ID : 9<br>
ID in the original source medium : 4611 (0x1203)<br>
Format : PGS<br>
Codec ID : S_HDMV/PGS<br>
Codec ID/Info : Picture based subtitle format used on BDs/HD-DVDs<br>
Duration : 1 h 3 min<br>
Bit rate : 25.6 kb/s<br>
Frame rate : 0.364 FPS<br>
Count of elements : 1380<br>
Stream size : 11.6 MiB (0%)<br>
Language : Chinese<br>
Default : No<br>
Forced : No<br>
Original source medium : Blu-ray<br>
<br>
Text #5<br>
ID : 11<br>
ID in the original source medium : 4612 (0x1204)<br>
Format : PGS<br>
Codec ID : S_HDMV/PGS<br>
Codec ID/Info : Picture based subtitle format used on BDs/HD-DVDs<br>
Duration : 1 h 3 min<br>
Bit rate : 25.7 kb/s<br>
Frame rate : 0.364 FPS<br>
Count of elements : 1380<br>
Stream size : 11.6 MiB (0%)<br>
Language : Chinese<br>
Default : No<br>
Forced : No<br>
Original source medium : Blu-ray<br>
<br>
Text #6<br>
ID : 13<br>
ID in the original source medium : 4613 (0x1205)<br>
Format : PGS<br>
Codec ID : S_HDMV/PGS<br>
Codec ID/Info : Picture based subtitle format used on BDs/HD-DVDs<br>
Duration : 1 h 3 min<br>
Bit rate : 28.7 kb/s<br>
Frame rate : 0.365 FPS<br>
Count of elements : 1384<br>
Stream size : 13.0 MiB (0%)<br>
Language : Spanish<br>
Default : No<br>
Forced : No<br>
Original source medium : Blu-ray<br>
<br>
Menu<br>
00:00:00.000 : en:-INTRO-<br>
00:00:37.037 : en:HESONOO<br>
00:01:29.714 : en:X-GENE<br>
00:02:59.804 : en:-VCR-<br>
00:04:59.299 : en:GRL GVNG<br>
00:08:49.529 : en:-VCR-<br>
00:14:49.889 : en<img src="styles/default/xenforo/smilies/grimace-48.png" class="mceSmilie" alt=":p" title="Stick Out Tongue    :p">UPPET SHOW<br>
00:18:23.102 : en:NEW DANCE<br>
00:21:39.089 : en:-MC-<br>
00:30:37.210 : en:TGIF<br>
00:41:34.492 : en:SHOOTING STAR<br>
00:45:08.706 : en:MASCARA<br>
00:48:23.901 : en:-MC-<br>
01:01:20.093 : en:Just Stand Up!<br>
01:04:13.850 : en:LEFT RIGHT<br>
01:07:41.932 : en:-ENDING-<br>
01:12:10.326 : en:HESONOO &amp; X-GENE (Performance Video)</div>
</div><br>
<div class="bbCodeBlock bbCodeVfcHH HiddenContent">
<div class="attribution type">Hidden Content:</div>
<blockquote>You must reply before you can see the hidden data contained here.</blockquote>
</div>
<div class="messageTextEndMarker">&nbsp;</div>
</blockquote>
</article>]]></description>
                <author><![CDATA[kuraudie]]></author>
                </item>

                </channel></rss>